<svg width="24" height="24" viewBox="0 0 24 24" fill="none" xmlns="http://www.w3.org/2000/svg">
<g clip-path="url(#clip0)">
<path d="M23.2015 5.49811C22.7224 4.99621 22.0608 4.69963 21.308 4.69963H17.5209V4.654C17.5209 4.08366 17.2928 3.53613 16.9049 3.17111C16.5171 2.78328 15.9924 2.55515 15.4221 2.55515H8.57795C7.98479 2.55515 7.46008 2.78328 7.07224 3.17111C6.68441 3.55895 6.45627 4.08366 6.45627 4.654V4.69963H2.69202C1.93916 4.69963 1.27757 4.99621 0.798479 5.49811C0.319392 5.9772 0 6.66161 0 7.39165V18.7529C0 19.5057 0.296578 20.1673 0.798479 20.6464C1.27757 21.1255 1.96198 21.4449 2.69202 21.4449H21.308C22.0608 21.4449 22.7224 21.1483 23.2015 20.6464C23.6806 20.1673 24 19.4829 24 18.7529V7.39165C24 6.6388 23.7034 5.9772 23.2015 5.49811ZM22.8137 18.7529H22.7909C22.7909 19.1635 22.6312 19.5285 22.3574 19.8023C22.0837 20.0761 21.7186 20.2358 21.308 20.2358H2.69202C2.28137 20.2358 1.91635 20.0761 1.64259 19.8023C1.36882 19.5285 1.20913 19.1635 1.20913 18.7529V7.39165C1.20913 6.981 1.36882 6.61598 1.64259 6.34222C1.91635 6.06845 2.28137 5.90876 2.69202 5.90876H7.09506C7.43726 5.90876 7.71103 5.63499 7.71103 5.29279V4.63119C7.71103 4.38024 7.80228 4.1521 7.96198 3.99241C8.12167 3.83271 8.34981 3.74146 8.60076 3.74146H15.4221C15.673 3.74146 15.9011 3.83271 16.0608 3.99241C16.2205 4.1521 16.3118 4.38024 16.3118 4.63119V5.29279C16.3118 5.63499 16.5856 5.90876 16.9278 5.90876H21.3308C21.7414 5.90876 22.1065 6.06845 22.3802 6.34222C22.654 6.61598 22.8137 6.981 22.8137 7.39165V18.7529Z" fill="white"/>
<path d="M11.9999 7.46008C10.4485 7.46008 9.03409 8.09887 8.03028 9.10267C7.00367 10.1293 6.3877 11.5209 6.3877 13.0722C6.3877 14.6236 7.02648 16.038 8.03028 17.0418C9.0569 18.0684 10.4485 18.6844 11.9999 18.6844C13.5512 18.6844 14.9656 18.0456 15.9695 17.0418C16.9961 16.0152 17.612 14.6236 17.612 13.0722C17.612 11.5209 16.9733 10.1065 15.9695 9.10267C14.9656 8.09887 13.5512 7.46008 11.9999 7.46008ZM15.1025 16.1977C14.3041 16.9734 13.209 17.4753 11.9999 17.4753C10.7907 17.4753 9.69568 16.9734 8.8972 16.1977C8.09872 15.3992 7.61964 14.3042 7.61964 13.0951C7.61964 11.8859 8.12154 10.7909 8.8972 9.9924C9.69568 9.19392 10.7907 8.71483 11.9999 8.71483C13.209 8.71483 14.3041 9.21673 15.1025 9.9924C15.901 10.7909 16.3801 11.8859 16.3801 13.0951C16.4029 14.3042 15.901 15.3992 15.1025 16.1977Z" fill="white"/>
<path d="M20.1213 9.67301C20.7387 9.67301 21.2392 9.17252 21.2392 8.55514C21.2392 7.93776 20.7387 7.43727 20.1213 7.43727C19.5039 7.43727 19.0034 7.93776 19.0034 8.55514C19.0034 9.17252 19.5039 9.67301 20.1213 9.67301Z" fill="white"/>
</g>
<defs>
<clipPath id="clip0">
<rect width="24" height="24" fill="white"/>
</clipPath>
</defs>
</svg>
