<svg width="143" height="143" viewBox="0 0 143 143" fill="none" xmlns="http://www.w3.org/2000/svg">
<path d="M71.5003 11.9167C104.39 11.9167 131.084 38.61 131.084 71.5C131.084 104.39 104.39 131.083 71.5003 131.083C38.6103 131.083 11.917 104.39 11.917 71.5C11.917 38.61 38.6103 11.9167 71.5003 11.9167ZM35.8874 91.8537C44.6342 104.902 57.7664 113.208 72.4537 113.208C87.135 113.208 100.273 104.908 109.014 91.8537C99.0978 82.586 86.0264 77.4393 72.4537 77.4583C58.8788 77.4378 45.8051 82.5846 35.8874 91.8537V91.8537ZM71.5003 65.5417C76.2411 65.5417 80.7877 63.6584 84.1399 60.3062C87.4921 56.954 89.3753 52.4074 89.3753 47.6667C89.3753 42.9259 87.4921 38.3793 84.1399 35.0271C80.7877 31.6749 76.2411 29.7917 71.5003 29.7917C66.7596 29.7917 62.213 31.6749 58.8608 35.0271C55.5086 38.3793 53.6253 42.9259 53.6253 47.6667C53.6253 52.4074 55.5086 56.954 58.8608 60.3062C62.213 63.6584 66.7596 65.5417 71.5003 65.5417V65.5417Z" fill="#BEBEBE"/>
</svg>
