<svg width="20" height="20" viewBox="0 0 19 22" fill="none" xmlns="http://www.w3.org/2000/svg">
<path d="M8.00045 17.945C5.71644 17.6867 3.61777 16.5645 2.13477 14.8083C0.651763 13.0522 -0.103194 10.7952 0.0246964 8.50018C0.152587 6.20518 1.15364 4.04606 2.82258 2.46554C4.49152 0.885027 6.70189 0.00288553 9.00045 -1.42434e-06C11.3018 -0.00167769 13.5164 0.878334 15.189 2.45914C16.8616 4.03994 17.865 6.20141 17.9931 8.49924C18.1211 10.7971 17.364 13.0567 15.8775 14.8135C14.3909 16.5703 12.2878 17.691 10.0004 17.945V22H8.00045V17.945ZM9.00045 16C9.9197 16 10.83 15.8189 11.6792 15.4672C12.5285 15.1154 13.3002 14.5998 13.9502 13.9497C14.6002 13.2997 15.1158 12.5281 15.4676 11.6788C15.8194 10.8295 16.0004 9.91925 16.0004 9C16.0004 8.08075 15.8194 7.17049 15.4676 6.32121C15.1158 5.47194 14.6002 4.70026 13.9502 4.05025C13.3002 3.40024 12.5285 2.88462 11.6792 2.53284C10.83 2.18106 9.9197 2 9.00045 2C7.14393 2 5.36346 2.7375 4.0507 4.05025C2.73795 5.36301 2.00045 7.14348 2.00045 9C2.00045 10.8565 2.73795 12.637 4.0507 13.9497C5.36346 15.2625 7.14393 16 9.00045 16Z" fill="black"/>
</svg>
