<svg id="Layer_1" data-name="Layer 1" 
xmlns="http://www.w3.org/2000/svg" 
viewBox="0 0 437.11 437.11"><defs>
<style>.cls-1{fill:#000000;   background:#fff;}</style>
</defs>
<path class="cls-1" d="M379.1,83.38A14.91,14.91,0,0,1,364.18,98.3h-151v76.59a106.54,106.54,0,0,1,14.54-2.11c27.28-2,51.33,7.29,69.53,26.89,17.42,18.76,24.9,38.09,22.26,57.47-4,29.62-31,46.53-32.16,47.24A14.92,14.92,0,0,1,271.62,279c.44-.29,16.31-10.62,18.31-26.05,1.31-10-3.6-21.15-14.58-33C251.23,194,219,203.25,208.6,207.2a113.67,113.67,0,0,1-6.63,12c-6.19,9.57-16.75,22.29-31.87,28.56-1.16.49-2.38.94-3.65,1.36l92.65,94.21a14.92,14.92,0,1,1-21.27,20.93l-133.78-136a14.92,14.92,0,0,1,21.19-21c11.66,11.67,22.12,16.3,31.1,13.79,13.9-3.89,24.89-23.85,27-30.59V98.3H72.92a14.92,14.92,0,0,1,0-29.84H187.54l0,0h21.31l0,0H364.18A14.93,14.93,0,0,1,379.1,83.38Z"/>
</svg>

