<svg width="24" height="24" viewBox="0 0 24 24" fill="none" xmlns="http://www.w3.org/2000/svg">
<path d="M8.49998 15.5H7.5V18.5H8.49998V15.5Z" fill="#004777"/>
<path d="M12 18H5.5V19H12V18Z" fill="#004777"/>
<path d="M19.5 10H14.5C13.6716 10 13 10.6716 13 11.5V22.5C13 23.3284 13.6716 24 14.5 24H19.5C20.3284 24 21 23.3284 21 22.5V11.5C21 10.6716 20.3284 10 19.5 10ZM20 22.5C20 22.7762 19.7762 23 19.5 23H14.5C14.2239 23 14 22.7762 14 22.5V11.5C14 11.2239 14.2239 11 14.5 11H19.5C19.7762 11 20 11.2239 20 11.5V22.5Z" fill="#004777"/>
<path d="M17 17C16.1716 17 15.5 17.6716 15.5 18.5C15.5 19.3284 16.1716 20 17 20C17.8284 20 18.5 19.3284 18.5 18.5C18.5 17.6716 17.8284 17 17 17ZM17 19C16.7239 19 16.5 18.7761 16.5 18.5C16.5 18.2238 16.7239 18 17 18C17.2761 18 17.5 18.2239 17.5 18.5C17.5 18.7761 17.2761 19 17 19Z" fill="#004777"/>
<path d="M16.5 12H15.5V13H16.5V12Z" fill="#004777"/>
<path d="M18.5 12H17.5V13H18.5V12Z" fill="#004777"/>
<path d="M16.5 14H15.5V15H16.5V14Z" fill="#004777"/>
<path d="M18.5 14H17.5V15H18.5V14Z" fill="#004777"/>
<path d="M18.5 21H17.5V22H18.5V21Z" fill="#004777"/>
<path d="M16.5 21H15.5V22H16.5V21Z" fill="#004777"/>
<path d="M15.5859 8.58596L16.293 9.29297C16.6885 8.91507 17.3114 8.91507 17.7069 9.29297L18.414 8.58596C17.6229 7.82991 16.377 7.82991 15.5859 8.58596Z" fill="#004777"/>
<path d="M14.1714 7.17153L14.8784 7.87855C16.0508 6.70869 17.949 6.70869 19.1214 7.87855L19.8284 7.17153C18.2652 5.61209 15.7347 5.61209 14.1714 7.17153Z" fill="#004777"/>
<path d="M12.7573 5.75753L13.4643 6.46454C15.4182 4.51501 18.5814 4.51501 20.5353 6.46454L21.2424 5.75753C18.8979 3.41758 15.1017 3.41758 12.7573 5.75753Z" fill="#004777"/>
<path d="M22.5 0H1.5C0.671578 0 0 0.671578 0 1.5V14.5C0 15.3284 0.671578 16 1.5 16H12V15H1.5C1.22386 15 0.999984 14.7761 0.999984 14.5V1.5C0.999984 1.22386 1.22386 0.999984 1.5 0.999984H22.5C22.7761 0.999984 23 1.22386 23 1.5V14.5C23 14.7761 22.7761 15 22.5 15H22V16H22.5C23.3284 16 24 15.3284 24 14.5V1.5C24 0.671578 23.3284 0 22.5 0Z" fill="#004777"/>
<path d="M3.5 2C2.67158 2 2 2.67158 2 3.5V4.49998H2.99998V3.5C2.99998 3.22386 3.22386 2.99998 3.5 2.99998H4.49998V2H3.5Z" fill="#004777"/>
<path d="M2.99998 5.5H2V6.49998H2.99998V5.5Z" fill="#004777"/>
<path d="M2.99998 12.5H2V13.5H2.99998V12.5Z" fill="#004777"/>
<path d="M12 12.5H4V13.5H12V12.5Z" fill="#004777"/>
</svg>
