<svg width="83" height="83" viewBox="0 0 83 83" fill="none" xmlns="http://www.w3.org/2000/svg">
<g opacity="0.5">
<path d="M70.845 53.655C66.3249 49.135 60.9449 45.7889 55.0749 43.7634C61.3618 39.4333 65.4922 32.1865 65.4922 23.9922C65.4922 10.7629 54.7293 0 41.5 0C28.2707 0 17.5078 10.7629 17.5078 23.9922C17.5078 32.1865 21.6382 39.4333 27.9253 43.7634C22.0553 45.7889 16.6752 49.135 12.1551 53.655C4.31681 61.4934 2 67 0 77.5L6 83C6 63.6923 22.1923 47.9844 41.5 47.9844C60.8077 47.9844 76.5156 63.6923 76.5156 83H83C83 71.915 78.6832 61.4934 70.845 53.655ZM41.5 41.5C31.8462 41.5 23.9922 33.6461 23.9922 23.9922C23.9922 14.3383 31.8462 6.48438 41.5 6.48438C51.1538 6.48438 59.0078 14.3383 59.0078 23.9922C59.0078 33.6461 51.1538 41.5 41.5 41.5Z" fill="black"/>
</g>
</svg>
